<?xml version="1.0" encoding="utf-8"?>
<!-- Generator: Adobe Illustrator 22.1.0, SVG Export Plug-In . SVG Version: 6.00 Build 0)  -->
<svg version="1.1" id="Layer_1" xmlns="http://www.w3.org/2000/svg" xmlns:xlink="http://www.w3.org/1999/xlink" x="0px" y="0px"
	 viewBox="0 0 50 50" style="enable-background:new 0 0 50 50;" xml:space="preserve">
<g>
	<path d="M42.9,7.4h-2.7V6.1c0-1-0.8-1.9-1.9-1.9S36.5,5,36.5,6.1v1.4H31V6.1c0-1-0.8-1.9-1.9-1.9c-1,0-1.9,0.8-1.9,1.9v1.4h-5.5
		V6.1c0-1-0.8-1.9-1.9-1.9c-1,0-1.9,0.8-1.9,1.9v1.4h-5.5V6.1c0-1-0.8-1.9-1.9-1.9S9,5,9,6.1v1.4H6.3C4.5,7.4,3,8.9,3,10.7v7.1v0.8
		v24.3c0,1.8,1.5,3.3,3.3,3.3h36.7c1.8,0,3.3-1.5,3.3-3.3V18.5v-0.8v-7.1C46.2,8.9,44.7,7.4,42.9,7.4z M38.3,4.6
		c0.8,0,1.5,0.7,1.5,1.5v6.1c0,0.8-0.7,1.5-1.5,1.5V4.6z M29.2,4.6c0.8,0,1.5,0.7,1.5,1.5v6.1c0,0.8-0.7,1.5-1.5,1.5V4.6z M20,4.6
		c0.8,0,1.5,0.7,1.5,1.5v6.1c0,0.8-0.7,1.5-1.5,1.5V4.6z M10.8,4.6c0.8,0,1.5,0.7,1.5,1.5v6.1c0,0.8-0.7,1.5-1.5,1.5V4.6z
		 M45.4,42.8c0,1.4-1.1,2.5-2.5,2.5H6.3c-1.4,0-2.5-1.1-2.5-2.5V18.5h41.6V42.8z M45.4,17.8H3.8v-7.1c0-1.4,1.1-2.5,2.5-2.5H9v3.9
		c0,1,0.8,1.9,1.9,1.9c1,0,1.9-0.8,1.9-1.9V8.2h5.5v3.9c0,1,0.8,1.9,1.9,1.9c1,0,1.9-0.8,1.9-1.9V8.2h5.5v3.9c0,1,0.8,1.9,1.9,1.9
		c1,0,1.9-0.8,1.9-1.9V8.2h5.5v3.9c0,1,0.8,1.9,1.9,1.9c1,0,1.9-0.8,1.9-1.9V8.2h2.7c1.4,0,2.5,1.1,2.5,2.5L45.4,17.8L45.4,17.8z"/>
	<rect x="9.1" y="22.7" width="6.7" height="6.7"/>
	<rect x="21.2" y="34.5" width="6.7" height="6.7"/>
	<path d="M28,22.7h-6.7v6.7H28L28,22.7L28,22.7z M27.2,28.6H22v-5.1h5.2V28.6z"/>
	<path d="M9.3,41.3H16v-6.7H9.3V41.3z M10,35.4h5.2v5.1H10C10,40.5,10,35.4,10,35.4z"/>
	<path d="M39.6,22.7h-6.7v6.7h6.7V22.7z M38.8,28.6h-5.2v-5.1h5.2V28.6z"/>
	<path d="M39.6,34.6h-6.7v6.7h6.7V34.6z M38.8,40.5h-5.2v-5.1h5.2V40.5z"/>
</g>
</svg>
