<?xml version="1.0" encoding="utf-8"?>
<!-- Generator: Adobe Illustrator 22.1.0, SVG Export Plug-In . SVG Version: 6.00 Build 0)  -->
<svg version="1.1" id="Layer_1" xmlns="http://www.w3.org/2000/svg" xmlns:xlink="http://www.w3.org/1999/xlink" x="0px" y="0px"
	 viewBox="0 0 50 50" style="enable-background:new 0 0 50 50;" xml:space="preserve">
<g>
	<path d="M43.8,10.2c-0.6-0.6-1.4-0.9-2.2-0.9h-3.1V6.9c0-1.1-0.4-2-1.2-2.8C36.6,3.4,35.6,3,34.5,3H33c-1.1,0-2,0.4-2.8,1.2
		S29,5.8,29,6.9v2.4h-9.4V6.9c0-1.1-0.4-2-1.2-2.8S16.7,3,15.6,3h-1.6c-1.1,0-2,0.4-2.8,1.2c-0.8,0.8-1.2,1.7-1.2,2.8v2.4H7
		c-0.9,0-1.6,0.3-2.2,0.9c-0.6,0.6-0.9,1.3-0.9,2.2V44c0,0.9,0.3,1.6,0.9,2.2c0.6,0.6,1.3,0.9,2.2,0.9h34.7c0.9,0,1.6-0.3,2.2-0.9
		c0.6-0.6,0.9-1.4,0.9-2.2V12.4C44.7,11.6,44.4,10.9,43.8,10.2z M32.2,7h3.1v5.6h-3.1V7z M13.3,6.9h3.1v5.6h-3.1V6.9z M14,44H7v-7.1
		H14V44z M14,35.3H7v-7.9H14V35.3z M14,25.9H7v-7.1H14V25.9z M23.5,44h-7.9v-7.1h7.9V44z M23.5,35.3h-7.9v-7.9h7.9V35.3z M23.5,25.9
		h-7.9v-7.1h7.9V25.9z M32.9,44H25v-7.1h7.9V44z M32.9,35.3H25v-7.9h7.9V35.3z M32.9,25.9H25v-7.1h7.9V25.9z M41.6,44h-7.1v-7.1h7.1
		V44z M41.6,35.3h-7.1v-7.9h7.1V35.3z M41.6,25.9h-7.1v-7.1h7.1V25.9z"/>
</g>
</svg>
