<?xml version="1.0" encoding="utf-8"?>
<!-- Generator: Adobe Illustrator 22.1.0, SVG Export Plug-In . SVG Version: 6.00 Build 0)  -->
<svg version="1.1" id="Layer_1" xmlns="http://www.w3.org/2000/svg" xmlns:xlink="http://www.w3.org/1999/xlink" x="0px" y="0px"
	 viewBox="0 0 50 50" style="enable-background:new 0 0 50 50;" xml:space="preserve">
<path d="M47.6,15.5c0.4-0.2,0.6-0.4,0.8-0.8c0.4-0.8,0-1.8-0.8-2.1l0,0c-7.2-3.3-14.4-6.5-21.6-9.6c-0.5-0.2-1-0.1-1.2,0.4
	c-0.3-0.5-0.8-0.6-1.2-0.4l-0.1,0.1C16.4,6.2,9.3,9.4,2.2,12.6C1.4,13,1,13.9,1.4,14.7c0.2,0.4,0.4,0.6,0.8,0.8l0.1,0.1
	c2.9,1.5,5.7,2.9,8.6,4.3c-2.9,1.2-5.7,2.4-8.5,3.6c-0.7,0.3-1.1,1.1-0.8,1.8c0.2,0.3,0.4,0.6,0.7,0.7l0.1,0c2.9,1.5,5.7,3,8.6,4.4
	C8,31.6,5.1,32.8,2.3,34c-0.7,0.3-1,1.2-0.7,1.9c0.2,0.3,0.4,0.5,0.6,0.7l0.1,0c7.2,3.8,14.5,7.5,21.8,11c0.5,0.2,1.1,0.2,1.6,0
	c7.4-3.5,14.6-7.2,21.8-11l0.1,0c0.3-0.2,0.5-0.4,0.6-0.7c0.3-0.7,0-1.5-0.7-1.8c-2.9-1.3-5.7-2.5-8.6-3.7c2.9-1.5,5.8-3,8.6-4.5
	l0.1,0c0.3-0.2,0.5-0.4,0.6-0.7c0.3-0.7,0-1.5-0.7-1.8l0,0c-2.8-1.3-5.7-2.5-8.5-3.6C41.9,18.4,44.7,17,47.6,15.5L47.6,15.5z
	 M24.5,4.6L24.5,4.6c0.2-0.1,0.4-0.3,0.4-0.5c0.1,0.2,0.3,0.4,0.4,0.5l0.1,0.1c6,3.2,12,6.3,17.9,9.4c-6.2,2.9-12.3,5.8-18.4,8.7
	c-6.1-3-12.2-5.8-18.4-8.7C12.5,10.9,18.5,7.8,24.5,4.6z M43.8,35.2c-6.4,2.8-12.7,5.7-18.9,8.7c-6.2-3-12.5-5.9-18.8-8.7
	c2.3-1.3,4.6-2.5,6.9-3.7c3.7,1.9,7.4,3.7,11.2,5.5c0.5,0.3,1.1,0.3,1.6,0c3.8-1.8,7.5-3.7,11.2-5.6C39.1,32.7,41.5,34,43.8,35.2z
	 M43.8,24.6c-6.4,2.8-12.7,5.7-18.9,8.7c-6.2-3-12.5-5.9-18.9-8.7c2.3-1.2,4.6-2.5,6.9-3.7c3.7,1.9,7.5,3.7,11.2,5.5
	c0.5,0.3,1.1,0.3,1.6,0c3.8-1.8,7.5-3.7,11.2-5.5C39.2,22.1,41.5,23.4,43.8,24.6L43.8,24.6z"/>
</svg>
