<?xml version="1.0" encoding="utf-8"?>
<!-- Generator: Adobe Illustrator 22.1.0, SVG Export Plug-In . SVG Version: 6.00 Build 0)  -->
<svg version="1.1" id="Layer_1" xmlns="http://www.w3.org/2000/svg" xmlns:xlink="http://www.w3.org/1999/xlink" x="0px" y="0px"
	 viewBox="0 0 50 50" style="enable-background:new 0 0 50 50;" xml:space="preserve">
<path d="M47.5,14c0-0.5-0.3-1-0.7-1.2L25.3,2.2c-0.4-0.2-0.8-0.2-1.2,0L2.7,12.9C2.3,13.1,2,13.6,2,14s0.3,1,0.7,1.2l8.3,4.2
	l-8.3,4.2C2.3,23.8,2,24.3,2,24.7s0.3,1,0.7,1.2l8.3,4.2l-8.3,4.2C2.3,34.5,2,35,2,35.5s0.3,1,0.7,1.2l21.4,10.7
	c0.2,0.1,0.4,0.2,0.6,0.2s0.4-0.1,0.6-0.2l21.4-10.7c0.4-0.2,0.7-0.7,0.7-1.2s-0.3-1-0.7-1.2l-8.3-4.2l8.3-4.2
	c0.4-0.2,0.7-0.7,0.7-1.2s-0.3-1-0.7-1.2l-8.3-4.2l8.3-4.2C47.2,15,47.5,14.5,47.5,14z M43.2,35.5l-18.4,9.2L6.3,35.5l7.7-3.9
	l10.1,5c0.2,0.1,0.4,0.2,0.6,0.2s0.4-0.1,0.6-0.2l10.1-5L43.2,35.5z M43.2,24.7L24.8,34L6.3,24.7l7.7-3.9l10.1,5
	c0.2,0.1,0.4,0.2,0.6,0.2s0.4-0.1,0.6-0.2l10.1-5L43.2,24.7z M24.8,23.3L6.3,14l18.4-9.2L43.2,14L24.8,23.3z"/>
</svg>
