<?xml version="1.0" encoding="utf-8"?>
<!-- Generator: Adobe Illustrator 22.1.0, SVG Export Plug-In . SVG Version: 6.00 Build 0)  -->
<svg version="1.1" id="Layer_1" xmlns="http://www.w3.org/2000/svg" xmlns:xlink="http://www.w3.org/1999/xlink" x="0px" y="0px"
	 viewBox="0 0 50 50" style="enable-background:new 0 0 50 50;" xml:space="preserve">
<style type="text/css">
	.st0{fill:#DDDDDD;}
	.st1{fill:#FFFFFF;}
</style>
<path class="st0" d="M24.7,43.8c10.4,0,18.9-8.5,18.9-18.9S35.1,6,24.7,6S5.8,14.5,5.8,24.9S14.3,43.8,24.7,43.8z M18,16.2l15,8.6
	l-15,8.6V16.2z"/>
<polygon class="st1" points="18,16.2 18,33.5 33,24.9 "/>
<path class="st1" d="M24.7,47c12.2,0,22.1-9.9,22.1-22.1c0-5.9-2.3-11.5-6.5-15.6C31.6,0.7,17.6,0.9,9,9.7c-8.3,8.6-8.3,22.2,0,30.8
	C13.2,44.7,18.8,47,24.7,47z M24.7,6c10.4,0,18.9,8.5,18.9,18.9s-8.5,18.9-18.9,18.9S5.8,35.3,5.8,24.9S14.3,6,24.7,6z"/>
</svg>
